<svg aria-hidden="true" style="position:absolute;width:0;height:0;overflow:hidden" xmlns="http://www.w3.org/2000/svg">
  <defs>
    <symbol id="icon-Group-1" viewBox="0 0 72 32">
      <path fill="#f5f4fa" style="fill:var(--color1, #f5f4fa)" d="M1.067 0h69.867c.589 0 1.067.478 1.067 1.067v29.867c0 .589-.478 1.067-1.067 1.067H1.067A1.067 1.067 0 0 1 0 30.934V1.067C0 .478.478 0 1.067 0z"/>
      <path fill="#212121" style="fill:var(--color2, #212121)" d="m44.618 19.557-4.925-4.961.547-2.693c.131.053.283.084.442.085h.019a1.259 1.259 0 1 0-1.183-.828l-.003-.009-2.893.353-4.719-4.744a.308.308 0 0 0-.22-.093.312.312 0 0 0-.218.091l-.882.877a.31.31 0 0 0 0 .44l.475.481a8.716 8.716 0 0 0 1.47 10.303.302.302 0 0 0 .085.057 1.67 1.67 0 0 0-.03.319v3.61H28.85a1.558 1.558 0 0 0-1.556 1.555v.622a.31.31 0 0 0 .311.311h14.311a.31.31 0 0 0 .311-.311V24.4a1.557 1.557 0 0 0-1.555-1.555h-3.733v-1.599a8.632 8.632 0 0 0 5.93-.876l-.045.023.477.48a.309.309 0 0 0 .438.002l.882-.877a.31.31 0 0 0 0-.44zm-4.371-9.254a.62.62 0 0 1 1.06.442.621.621 0 0 1-.621.622h-.002a.623.623 0 0 1-.436-1.063h-.001zm-.733 2.044-.349 1.718-.686-.69 1.035-1.029zm-.353-.526-1.12 1.114-.866-.871 1.986-.242zm1.508 11.646c.515 0 .933.418.933.933v.311H27.913V24.4c0-.515.418-.933.933-.933h11.822zm-4.355-1.245v.622h-3.111v-.622h3.111zm-3.112-.622v-2.365c0-.755.698-1.369 1.555-1.369s1.556.614 1.556 1.369V21.6h-3.111zm3.734-.989v-1.375c0-1.098-.977-1.991-2.178-1.991h-.034c-.789 0-1.482.412-1.875 1.033l-.005.009a8.062 8.062 0 0 1-2.223-5.57c0-1.35.331-2.623.915-3.742l-.021.045 10.851 10.913a7.955 7.955 0 0 1-3.655.876 8.1 8.1 0 0 1-1.829-.208l.054.011zm6.585-.399L31.238 7.857l.44-.439 4.629 4.655c.002 0 .003.004.006.006l7.65 7.695-.441.439z"/>
      <path fill="#2196f3" style="fill:var(--color3, #2196f3)" d="M34.761 18.489h-.004a.933.933 0 0 0-.001 1.866h.004a.933.933 0 0 0 .001-1.866zm.217 1.154a.31.31 0 1 1-.438-.442.312.312 0 0 1 .218-.091.312.312 0 0 1 .218.532h.003z"/>
    </symbol>
    <symbol id="icon-Group-2" viewBox="0 0 72 32">
      <path fill="#f5f4fa" style="fill:var(--color1, #f5f4fa)" d="M1.067 0h69.867c.589 0 1.067.478 1.067 1.067v29.867c0 .589-.478 1.067-1.067 1.067H1.067A1.067 1.067 0 0 1 0 30.934V1.067C0 .478.478 0 1.067 0z"/>
      <path fill="#212121" style="fill:var(--color2, #212121)" d="M44.923 15.592c-.001-4.931-3.999-8.927-8.93-8.926s-8.927 3.999-8.926 8.93a8.932 8.932 0 0 0 6.149 8.485l.063.018a.394.394 0 0 0 .309-.038.37.37 0 0 0 .165-.208l2.255-7.146a1.115 1.115 0 0 0 1.11-1.115v-.006a1.115 1.115 0 0 0-1.116-1.11h-.006a1.096 1.096 0 0 0-.485.115l.006-.003-2.978-2.979a.373.373 0 0 0-.63.268c0 .1.04.191.104.258l2.977 2.98a1.094 1.094 0 0 0 .31 1.345l.002.002-2.148 6.809a8.192 8.192 0 1 1 10.519-4.856 8.243 8.243 0 0 1-4.301 4.631l-.051.021-.232-1.093a.373.373 0 0 0-.612-.2l-2.238 1.998a.37.37 0 0 0 .132.632l.003.001 2.858.912a.373.373 0 0 0 .486-.354.344.344 0 0 0-.009-.08v.002l-.228-1.073c3.224-1.385 5.442-4.533 5.442-8.2v-.02.001zm-8.928-.371a.373.373 0 0 1 0 .744.373.373 0 0 1 0-.744zm1.226 8.67 1.274-1.137.352 1.657-1.626-.52z"/>
      <path fill="#2196f3" style="fill:var(--color3, #2196f3)" d="M35.623 8.525v.744a.373.373 0 0 0 .744 0v-.744a.373.373 0 0 0-.744 0zm-6.695 6.696a.373.373 0 0 0 0 .744h.744a.373.373 0 0 0 0-.744h-.744zm14.135.744a.373.373 0 0 0 0-.744h-.744a.373.373 0 0 0 0 .744h.744z"/>
    </symbol>
    <symbol id="icon-Group-3" viewBox="0 0 72 32">
      <path fill="#f5f4fa" style="fill:var(--color1, #f5f4fa)" d="M1.067 0h69.867c.589 0 1.067.478 1.067 1.067v29.867c0 .589-.478 1.067-1.067 1.067H1.067A1.067 1.067 0 0 1 0 30.934V1.067C0 .478.478 0 1.067 0z"/>
      <path fill="#2196f3" style="fill:var(--color3, #2196f3)" d="M35.373 15.396h.622v2.799h-.622v-2.799zm2.488 1.244h.622v1.555h-.622V16.64zm-4.975.933h.622v.622h-.622v-.622zm-1.866-.311h.622v.933h-.622v-.933z"/>
      <path fill="#212121" style="fill:var(--color2, #212121)" d="M27.599 23.17h14.926a.933.933 0 0 0 .933-.933v-1.244a.933.933 0 0 0-.933-.933h-.311v-7.755l1.766-1.673a.938.938 0 1 0-.433-.439l-.002-.006-1.331 1.262v-.717a.933.933 0 0 0-.933-.933H28.843a.933.933 0 0 0-.933.933v9.329h-.311a.933.933 0 0 0-.933.933v1.244c0 .515.418.933.933.933zM44.391 9.488a.31.31 0 1 1 0 .622.31.31 0 1 1 0-.622zm-15.859 1.244a.31.31 0 0 1 .311-.311h12.438a.31.31 0 0 1 .311.311v1.306l-.622.591v-1.275a.31.31 0 0 0-.311-.311H29.465a.31.31 0 0 0-.311.311v7.774a.31.31 0 0 0 .311.311h11.194a.311.311 0 0 0 .311-.311v-5.643l.622-.589v7.165h-13.06v-9.328zm2.799 4.042h-.003a.933.933 0 1 0 .649 1.603l1.081.542a.31.31 0 0 0 .371-.071l2.298-2.585 2.259 1.693a.31.31 0 0 0 .4-.023l1.963-1.859v4.743H29.777v-7.152h10.572v1.552l-2.2 2.083-2.278-1.707a.31.31 0 0 0-.419.042l-2.329 2.621-.871-.435a.899.899 0 0 0 .012-.111v-.002a.933.933 0 0 0-.933-.933zm.311.933a.31.31 0 1 1-.622 0 .31.31 0 1 1 .622 0zm1.865 4.975h3.11v.311a.31.31 0 0 1-.311.311h-2.488a.31.31 0 0 1-.311-.311v-.311zm-6.218.311a.31.31 0 0 1 .311-.311h5.286v.311c0 .515.418.933.933.933h2.488a.933.933 0 0 0 .933-.933v-.311h5.286a.31.31 0 0 1 .311.311v1.244a.31.31 0 0 1-.311.311H27.6a.31.31 0 0 1-.311-.311v-1.244z"/>
    </symbol>
    <symbol id="icon-Group-4" viewBox="0 0 72 32">
      <path fill="#f5f4fa" style="fill:var(--color1, #f5f4fa)" d="M1.067 0h69.867c.589 0 1.067.478 1.067 1.067v29.867c0 .589-.478 1.067-1.067 1.067H1.067A1.067 1.067 0 0 1 0 30.934V1.067C0 .478.478 0 1.067 0z"/>
      <path fill="#2196f3" style="fill:var(--color3, #2196f3)" d="M45.318 9.306a.312.312 0 0 0-.249-.211h-.002l-1.114-.162-.499-1.01c-.105-.213-.453-.213-.558 0l-.499 1.01-1.115.162a.31.31 0 0 0-.173.531l.807.786-.19 1.11a.311.311 0 0 0 .451.328l.997-.525.997.524a.314.314 0 0 0 .329-.024l-.001.001a.307.307 0 0 0 .123-.304l-.19-1.11.807-.786a.312.312 0 0 0 .078-.321l.001.002zm-1.436.774a.309.309 0 0 0-.089.278v-.002l.111.65-.583-.307a.305.305 0 0 0-.292.001l.002-.001-.583.307.111-.65a.308.308 0 0 0-.089-.275l-.473-.461.653-.095a.31.31 0 0 0 .234-.17l.292-.591.292.591a.31.31 0 0 0 .234.17l.653.095-.472.461zm-1.971 8.558h-.622v.622h.622v-.622zm0 1.245h-.622v.622h.622v-.622zm.622-.623h-.622v.622h.622v-.622zm-1.244 0h-.622v.622h.622v-.622zm-1.556 2.8h-.622v.622h.622v-.622zm0 1.245h-.622v.622h.622v-.622zm.623-.622h-.622v.622h.622v-.622zm-1.245 0h-.622v.622h.622v-.622zM36 20.816h-.622v.622H36v-.622zm0 1.244h-.622v.622H36v-.622zm.622-.622H36v.622h.622v-.622zm-1.244 0h-.622v.622h.622v-.622zm-5.289-11.2h-.622v.622h.622v-.622zm0 1.244h-.622v.622h.622v-.622zm.622-.622h-.622v.622h.622v-.622zm-1.244 0h-.622v.622h.622v-.622z"/>
      <path fill="#212121" style="fill:var(--color2, #212121)" d="M41.084 14.926a1.033 1.033 0 0 0-.688-.41l-.005-.001a1.03 1.03 0 0 0-.784.207l.002-.002-.73.56-1.107.827-.792-.316a4.046 4.046 0 0 0 2.4-3.687c0-2.23-1.822-4.045-4.061-4.045s-4.061 1.814-4.061 4.045c0 .808.242 1.56.653 2.193l-1.615-.014c-.005 0-.009.003-.014.003a.314.314 0 0 0-.093.019l.002-.001c-.007.003-.015.004-.022.008a.049.049 0 0 0-.011.004l-1.886.931-.001.001-1.104.531a.232.232 0 0 0-.038.021l.001-.001a1.04 1.04 0 0 0-.347 1.345l-.003-.006c.128.247.346.433.609.516l.007.002a1.035 1.035 0 0 0 .809-.078l-.005.003.81-.43 1.321-.682.791-.005-3.956 3.937a.96.96 0 0 0-.286.685v.004a.97.97 0 0 0 .972.969h.002c.25 0 .498-.094.689-.283l.767-.763 1.015-.758.525.523-1.809 1.802a.958.958 0 0 0-.286.685v.003a.973.973 0 0 0 .973.971h.001a.974.974 0 0 0 .689-.283l2.618-2.609c.004-.004.009-.005.013-.009l3.013-3.301 2.025.288a.312.312 0 0 0 .153-.019l.029-.014c.011-.006.023-.009.034-.016l1.874-1.244c.007-.005.011-.012.017-.017.007-.006.017-.008.024-.015l.742-.695a1.034 1.034 0 0 0 .122-1.38l.002.003zm-13.175 2.107a.404.404 0 0 1-.329.029l.003.001a.418.418 0 0 1-.125-.734l.001-.001.766-.369.185.539.077.227-.579.307zm2.04-1.067-.903.467-.149-.435-.107-.313 1.182-.584-.023.866zm8.808-3.861c0 .536-.128 1.041-.349 1.493l-2.439-1.108a1.086 1.086 0 0 0-.456-.807l-.003-.002.854-2.835a3.429 3.429 0 0 1 2.394 3.26zm-6.876 0a3.434 3.434 0 0 1 3.438-3.422c.147 0 .292.013.435.031l-.835 2.773-.033-.003c-.602 0-1.093.488-1.093 1.089s.49 1.089 1.093 1.089c.405 0 .755-.223.944-.551l2.253 1.024a3.439 3.439 0 0 1-6.201-2.028zm3.474.466a.47.47 0 0 1-.47.467h-.001a.47.47 0 0 1-.469-.467.47.47 0 0 1 .94 0zm-7.25 8.764a.355.355 0 0 1-.498.001.344.344 0 0 1 0-.492l.561-.559.497.494-.559.557zm1.874 2.178a.355.355 0 0 1-.498.001.344.344 0 0 1 0-.492l.562-.559.497.494-.56.557zm2.031-2.023-.001.001-1.03 1.027-.497-.494 1.03-1.025a.292.292 0 0 0 .052-.079c.004-.008.012-.015.015-.023.01-.024.011-.05.015-.075.002-.014.008-.028.008-.043 0-.021-.007-.041-.012-.061-.004-.019-.004-.038-.011-.056a.324.324 0 0 0-.053-.081c-.006-.007-.008-.015-.015-.022h-.001l-.001-.001-.937-.933c-.01-.01-.023-.014-.034-.023a.35.35 0 0 0-.049-.033l-.002-.001a.253.253 0 0 0-.053-.018h-.002a.257.257 0 0 0-.059-.012H30.359a.325.325 0 0 0-.044.003h.002c-.021.003-.041.005-.061.012s-.037.016-.055.026c-.012.006-.025.009-.035.017l-1.035.772-.525-.523 1.399-1.392 2.543 2.502-.541.536zm3.978-4.093c-.009-.001-.017.002-.026.002h-.016a.305.305 0 0 0-.105.018l.002-.001a.275.275 0 0 0-.057.028l.001-.001a.343.343 0 0 0-.049.036c-.007.006-.017.01-.023.017l-2.741 3.002-2.525-2.483 1.653-1.644a.31.31 0 0 0-.22-.531h-.002l-1.294.007.016-.938 1.811.015a4.044 4.044 0 0 0 2.904 1.226h.002c.255 0 .504-.027.746-.071a.294.294 0 0 0 .075.049l1.406.56.089.442.104.517-1.752-.249zm2.357.104-.182-.909.844-.63.221.293.331.44-1.214.806zm2.19-1.652-.489.458-.543-.721.485-.372a.425.425 0 0 1 .597.083.415.415 0 0 1-.05.552z"/>
      <path fill="#212121" style="fill:var(--color2, #212121)" d="m34.601 17.484-1.25-1.245a.31.31 0 0 0-.438 0l-1.25 1.245a.315.315 0 0 0 0 .442l1.25 1.245a.31.31 0 0 0 .438 0l1.25-1.245a.31.31 0 0 0 0-.442zm-1.469 1.026-.809-.805.809-.806.809.805-.809.805zm3.547-8.885-.15.604c.041.01 1.014.263 1.014 1.253h.622c0-1.177-.972-1.73-1.486-1.858zm1.486 2.48h-.622v.622h.622v-.622z"/>
    </symbol>
  </defs>
</svg>
